<?xml version="1.0" encoding="UTF-8"?>
<svg width="131px" height="326px" viewBox="0 0 131 326" version="1.1" xmlns="http://www.w3.org/2000/svg" xmlns:xlink="http://www.w3.org/1999/xlink">
    <title>Desktop HD</title>
    <g id="Page-1" stroke="none" stroke-width="1" fill="none" fill-rule="evenodd">
        <g id="Desktop-HD" transform="translate(-55.000000, -118.000000)" fill="#567570" fill-rule="nonzero">
            <path d="M-106.67862,319.229582 C-99.796164,310.900495 -91.5547517,303.491992 -83.1379902,296.69721 C-74.1513438,289.420219 -64.5948125,282.800786 -54.6875829,276.838914 C-36.4512663,265.791914 -16.5929696,256.103871 4.40509686,251.588629 C16.7672153,248.958391 29.5238695,248.125482 42.1051744,248.739205 C54.8618286,249.352927 67.0485978,252.027002 79.1915298,255.840847 C104.83635,263.863073 130.656519,272.981231 157.92332,270.438668 C170.636137,269.255061 182.735231,265.52889 195.141187,262.854815 C206.012837,260.487601 217.235186,259.830041 228.326023,260.575275 C250.200835,262.109581 271.286576,269.956458 289.522893,281.92404 C302.630245,290.516151 313.414221,301.519313 323.891336,313.09236 C324.811919,314.100618 326.565411,312.785499 325.820177,311.601892 C319.726792,302.483734 311.792241,294.636857 303.375479,287.666727 C295.002555,280.740433 285.796722,274.822398 276.064842,270.044132 C256.644918,260.487601 234.901618,255.753172 213.245992,256.849105 C207.766329,257.112129 202.286667,257.813526 196.894679,258.865621 C190.801294,260.005391 184.839422,261.80272 178.789874,263.249351 C166.164732,266.230287 153.320403,267.983779 140.344563,267.194708 C126.579651,266.361799 113.033925,262.547954 99.8827352,258.602597 C87.3014302,254.832589 74.8516371,250.141998 61.9196338,247.643272 C37.8967937,242.996518 12.1642989,244.443149 -11.0694699,252.246189 C-31.0592784,258.953295 -49.9093172,269.342735 -67.2688878,281.222643 C-82.4804307,291.612083 -96.3768547,303.667341 -107.774553,318.177487 C-108.475949,318.878884 -107.380017,320.062491 -106.67862,319.229582 L-106.67862,319.229582 Z" id="Path-Copy" transform="translate(109.000000, 282.257703) rotate(-90.000000) translate(-109.000000, -282.257703) "></path>
            <path d="M-86.67862,319.229582 C-79.796164,310.900495 -71.5547517,303.491992 -63.1379902,296.69721 C-54.1513438,289.420219 -44.5948125,282.800786 -34.6875829,276.838914 C-16.4512663,265.791914 3.4070304,256.103871 24.4050969,251.588629 C36.7672153,248.958391 49.5238695,248.125482 62.1051744,248.739205 C74.8618286,249.352927 87.0485978,252.027002 99.1915298,255.840847 C124.83635,263.863073 150.656519,272.981231 177.92332,270.438668 C190.636137,269.255061 202.735231,265.52889 215.141187,262.854815 C226.012837,260.487601 237.235186,259.830041 248.326023,260.575275 C270.200835,262.109581 291.286576,269.956458 309.522893,281.92404 C322.630245,290.516151 333.414221,301.519313 343.891336,313.09236 C344.811919,314.100618 346.565411,312.785499 345.820177,311.601892 C339.726792,302.483734 331.792241,294.636857 323.375479,287.666727 C315.002555,280.740433 305.796722,274.822398 296.064842,270.044132 C276.644918,260.487601 254.901618,255.753172 233.245992,256.849105 C227.766329,257.112129 222.286667,257.813526 216.894679,258.865621 C210.801294,260.005391 204.839422,261.80272 198.789874,263.249351 C186.164732,266.230287 173.320403,267.983779 160.344563,267.194708 C146.579651,266.361799 133.033925,262.547954 119.882735,258.602597 C107.30143,254.832589 94.8516371,250.141998 81.9196338,247.643272 C57.8967937,242.996518 32.1642989,244.443149 8.93053014,252.246189 C-11.0592784,258.953295 -29.9093172,269.342735 -47.2688878,281.222643 C-62.4804307,291.612083 -76.3768547,303.667341 -87.7745525,318.177487 C-88.4759493,318.878884 -87.3800168,320.062491 -86.67862,319.229582 L-86.67862,319.229582 Z" id="Path-Copy-2" transform="translate(129.000000, 282.257703) rotate(-90.000000) translate(-129.000000, -282.257703) "></path>
            <path d="M-66.67862,319.229582 C-59.796164,310.900495 -51.5547517,303.491992 -43.1379902,296.69721 C-34.1513438,289.420219 -24.5948125,282.800786 -14.6875829,276.838914 C3.54873374,265.791914 23.4070304,256.103871 44.4050969,251.588629 C56.7672153,248.958391 69.5238695,248.125482 82.1051744,248.739205 C94.8618286,249.352927 107.048598,252.027002 119.19153,255.840847 C144.83635,263.863073 170.656519,272.981231 197.92332,270.438668 C210.636137,269.255061 222.735231,265.52889 235.141187,262.854815 C246.012837,260.487601 257.235186,259.830041 268.326023,260.575275 C290.200835,262.109581 311.286576,269.956458 329.522893,281.92404 C342.630245,290.516151 353.414221,301.519313 363.891336,313.09236 C364.811919,314.100618 366.565411,312.785499 365.820177,311.601892 C359.726792,302.483734 351.792241,294.636857 343.375479,287.666727 C335.002555,280.740433 325.796722,274.822398 316.064842,270.044132 C296.644918,260.487601 274.901618,255.753172 253.245992,256.849105 C247.766329,257.112129 242.286667,257.813526 236.894679,258.865621 C230.801294,260.005391 224.839422,261.80272 218.789874,263.249351 C206.164732,266.230287 193.320403,267.983779 180.344563,267.194708 C166.579651,266.361799 153.033925,262.547954 139.882735,258.602597 C127.30143,254.832589 114.851637,250.141998 101.919634,247.643272 C77.8967937,242.996518 52.1642989,244.443149 28.9305301,252.246189 C8.94072157,258.953295 -9.90931721,269.342735 -27.2688878,281.222643 C-42.4804307,291.612083 -56.3768547,303.667341 -67.7745525,318.177487 C-68.4759493,318.878884 -67.3800168,320.062491 -66.67862,319.229582 L-66.67862,319.229582 Z" id="Path-Copy-3" transform="translate(149.000000, 282.257703) rotate(-90.000000) translate(-149.000000, -282.257703) "></path>
            <path d="M-46.67862,319.229582 C-39.796164,310.900495 -31.5547517,303.491992 -23.1379902,296.69721 C-14.1513438,289.420219 -4.59481254,282.800786 5.31241715,276.838914 C23.5487337,265.791914 43.4070304,256.103871 64.4050969,251.588629 C76.7672153,248.958391 89.5238695,248.125482 102.105174,248.739205 C114.861829,249.352927 127.048598,252.027002 139.19153,255.840847 C164.83635,263.863073 190.656519,272.981231 217.92332,270.438668 C230.636137,269.255061 242.735231,265.52889 255.141187,262.854815 C266.012837,260.487601 277.235186,259.830041 288.326023,260.575275 C310.200835,262.109581 331.286576,269.956458 349.522893,281.92404 C362.630245,290.516151 373.414221,301.519313 383.891336,313.09236 C384.811919,314.100618 386.565411,312.785499 385.820177,311.601892 C379.726792,302.483734 371.792241,294.636857 363.375479,287.666727 C355.002555,280.740433 345.796722,274.822398 336.064842,270.044132 C316.644918,260.487601 294.901618,255.753172 273.245992,256.849105 C267.766329,257.112129 262.286667,257.813526 256.894679,258.865621 C250.801294,260.005391 244.839422,261.80272 238.789874,263.249351 C226.164732,266.230287 213.320403,267.983779 200.344563,267.194708 C186.579651,266.361799 173.033925,262.547954 159.882735,258.602597 C147.30143,254.832589 134.851637,250.141998 121.919634,247.643272 C97.8967937,242.996518 72.1642989,244.443149 48.9305301,252.246189 C28.9407216,258.953295 10.0906828,269.342735 -7.26888781,281.222643 C-22.4804307,291.612083 -36.3768547,303.667341 -47.7745525,318.177487 C-48.4759493,318.878884 -47.3800168,320.062491 -46.67862,319.229582 L-46.67862,319.229582 Z" id="Path-Copy-4" transform="translate(169.000000, 282.257703) rotate(-90.000000) translate(-169.000000, -282.257703) "></path>
        </g>
    </g>
</svg>