<?xml version="1.0" encoding="utf-8"?>
<!-- Generator: Adobe Illustrator 25.0.0, SVG Export Plug-In . SVG Version: 6.00 Build 0)  -->
<svg version="1.1" id="Layer_1" xmlns="http://www.w3.org/2000/svg" xmlns:xlink="http://www.w3.org/1999/xlink" x="0px" y="0px"
	 viewBox="0 0 2032 254" style="enable-background:new 0 0 2032 254;" xml:space="preserve">
<style type="text/css">
	.st0{fill:none;stroke:#EC8271;stroke-width:3;stroke-miterlimit:10;}
</style>
<path class="st0" d="M7.39,92.07c0,0,84.12-58.67,204.1,0s257.94,21.34,358.21-10.74s253.27-66.59,392.77-10.58
	c132,53,280,11,280,11"/>
<path class="st0" d="M36.39,133.07c0,0,84.12-58.67,204.1,0s257.94,21.34,358.21-10.74s253.27-66.59,392.77-10.58
	c132,53,280,11,280,11"/>
<path class="st0" d="M797.39,163.07c0,0,84.12-58.67,204.1,0s257.94,21.34,358.21-10.74s253.27-66.59,392.77-10.58
	c132,53,280,11,280,11"/>
<path class="st0" d="M748.39,223.07c0,0,84.12-58.67,204.1,0s257.94,21.34,358.21-10.74s253.27-66.59,392.77-10.58
	c132,53,280,11,280,11"/>
<path class="st0" d="M47.39,51.07c0,0,84.12-58.67,204.1,0S509.43,72.41,609.7,40.32s253.27-66.59,392.77-10.58
	c132,53,280,11,280,11"/>
</svg>
