<?xml version="1.0" encoding="utf-8"?>
<!-- Generator: Adobe Illustrator 25.0.0, SVG Export Plug-In . SVG Version: 6.00 Build 0)  -->
<svg version="1.1" id="Layer_1" xmlns="http://www.w3.org/2000/svg" xmlns:xlink="http://www.w3.org/1999/xlink" x="0px" y="0px"
	 viewBox="0 0 1387 174" style="enable-background:new 0 0 1387 174;" xml:space="preserve">
<style type="text/css">
	.st0{fill:none;stroke:#EC8271;stroke-width:3;stroke-miterlimit:10;}
</style>
<path class="st0" d="M-0.26,120.6c0,0,139.81-96.02,270.74-76.06S390.59,130.87,561.48,74c78.9-26.26,114.1-35.53,254.52,19.85
	s238.48,5.26,310.87-30.4c72.39-35.66,135.3-49.5,260.3,7.94"/>
<path class="st0" d="M423.58,126.53c44.96,19.92,80.1,33.67,188.89-2.54c78.9-26.26,114.1-35.53,254.52,19.85
	c104.33,41.15,185.28,24.06,249.69-2.08"/>
<path class="st0" d="M330.58,27.53c44.96,19.92,80.1,33.67,188.89-2.54C598.38-1.26,633.58-10.53,774,44.85
	c104.33,41.15,185.28,24.06,249.69-2.08"/>
</svg>
