<?xml version="1.0" encoding="utf-8"?>
<!-- Generator: Adobe Illustrator 24.2.3, SVG Export Plug-In . SVG Version: 6.00 Build 0)  -->
<svg version="1.1" id="Layer_1" xmlns="http://www.w3.org/2000/svg" xmlns:xlink="http://www.w3.org/1999/xlink" x="0px" y="0px"
	 viewBox="0 0 792 612" style="enable-background:new 0 0 792 612;" xml:space="preserve">
<style type="text/css">
	.st0{fill:#357474;}
	.st1{fill:#ED8571;}
	.st2{fill:#62B8B0;}
	.st3{fill:#36495E;}
	.st4{fill:none;stroke:#ED8571;stroke-miterlimit:10;}
</style>
<rect x="405.84" y="151.58" class="st0" width="6.12" height="12.24"/>
<path class="st1" d="M445.83,361.88l-12.76-52.79c-0.45-1.84-2.42-2.83-4.17-2.11c-1.2,0.5-2.78,0.96-4.77,1.22
	c-4.3,0.56-10.75,0.7-13.68,0.74c-0.99,0.01-1.9,0.49-2.47,1.29l-2.67,3.74c-2.4,3.37-7.83,3.28-10.09-0.17l-2.12-3.22
	c-0.63-0.95-1.72-1.47-2.85-1.37c-2.11,0.18-6.24,0.24-13.07-0.82c-5.18-0.8-8.77-1.95-11.11-2.94c-1.85-0.77-3.93,0.41-4.22,2.4
	L354,362.16c-0.27,1.85,1.17,3.51,3.04,3.51h14.02c1.54,0,2.84-1.14,3.04-2.67l0.65-4.95c0.18-1.42,1.34-2.6,2.78-2.62h0.04
	l1.94-0.03c1.38-0.01,2.57,0.88,2.84,2.11l0.4,5.32c0.12,1.6,1.45,2.84,3.06,2.84h30.36c1.64,0,2.99-1.29,3.06-2.93l0.24-5.14
	c0.19-1.38,1.45-2.44,2.97-2.48l2.21-0.07c1.46-0.05,2.76,0.85,3.11,2.14l0.58,5.72c0.16,1.57,1.48,2.76,3.05,2.76h11.45
	C444.83,365.67,446.29,363.81,445.83,361.88z M415.43,324.11c-2.16,0-3.91-1.75-3.91-3.91c0-2.15,1.75-3.9,3.91-3.9
	c2.16,0,3.9,1.75,3.9,3.9C419.33,322.36,417.59,324.11,415.43,324.11z M423.99,331.4c-2.16,0-3.91-1.75-3.91-3.91
	s1.75-3.91,3.91-3.91c2.15,0,3.9,1.75,3.9,3.91S426.14,331.4,423.99,331.4z M425.9,320.99c-2.15,0-3.9-1.75-3.9-3.91
	c0-2.15,1.75-3.9,3.9-3.9c2.16,0,3.91,1.75,3.91,3.9C429.81,319.24,428.06,320.99,425.9,320.99z"/>
<path class="st0" d="M405.16,247.88l-0.95,63.5c-2.63,2.57-6.41,2.44-8.49-0.7l-3.18-4.86c0,0-4.04,1.13-14.85-0.55
	c-2.02-0.32-3.79-0.68-5.34-1.07v-40.15c0-2.41-0.01-4.81,0.04-7.21c0.06-2.44-0.15-4.88-0.04-7.34c0.02-0.53,0.08-1.07,0.18-1.58
	c0.28-1.71,0.9-3.35,1.84-4.85c3.1-4.93,8.42-8.72,14.38-8.72C397.81,234.34,405.16,241.08,405.16,247.88z"/>
<path class="st2" d="M376.77,237.5c-0.09,0.08-0.16,0.2-0.25,0.28c-0.81,0.76-1.54,1.58-2.18,2.47l-0.04,0.06
	c-0.62,0.89-1.16,1.83-1.61,2.82c-0.08,0.2-0.18,0.36-0.26,0.55c-0.41,0.99-0.74,2.01-0.97,3.04c-0.05,0.2-0.07,0.41-0.12,0.61
	c-0.22,1.1-0.34,2.23-0.35,3.37v53.14c-5.79-1.62-9.73-5.33-9.73-5.33l-1.02,7.08c-5.27-9.67-7.66-26.31-10.46-34.86
	c-1.2-3.49-2.23-6.9-3.08-10.15c-4.13-15.86-6.06-35.55,8.32-39.31l0.39-0.09C363.99,219.12,371.16,224.6,376.77,237.5z"/>
<path class="st2" d="M442.41,241.35l-11.77,61.91c-1.28,0.68-3.23,1.44-6,1.81c-1.89,0.25-4.18,0.41-6.41,0.52
	c7.43-20.38,12.04-54.46,12.28-77.34c1.34-0.19,2.71-0.13,4.04,0.2C440.28,229.83,443.8,235.62,442.41,241.35z"/>
<path class="st0" d="M428.48,224.96v0.58c0,27.13-5.36,64.38-13,80.15c-3.39,0.12-7.04-0.11-7.04-0.11l-2.47,3.47l0.95-58.37
	c-0.01-9.92-8.05-17.96-17.97-17.97c-0.74,0-1.48,0.06-2.22,0.15c-0.23,0.02-0.46,0.08-0.69,0.12c-0.35,0.06-0.69,0.09-1.03,0.18
	c-0.09-2.62-0.15-5.17-0.15-7.63c0-39.5,11.3-57.5,21.81-57.5C417.11,168.04,428.38,185.85,428.48,224.96z"/>
<rect x="349.23" y="203.66" transform="matrix(0.9677 -0.2519 0.2519 0.9677 -41.739 95.6898)" class="st2" width="7.19" height="14.38"/>
<rect x="331.67" y="216.91" transform="matrix(0.506 -0.8625 0.8625 0.506 -27.6632 399.8892)" class="st2" width="7.18" height="14.37"/>
<rect x="367.42" y="210.25" transform="matrix(0.506 -0.8625 0.8625 0.506 0.6121 428.7507)" class="st2" width="14.37" height="7.18"/>
<rect x="326" y="244.44" transform="matrix(0.9973 -0.0733 0.0733 0.9973 -17.275 25.074)" class="st2" width="14.37" height="7.19"/>
<rect x="332.31" y="270.11" transform="matrix(0.9676 -0.2524 0.2524 0.9676 -58.0919 94.5529)" class="st2" width="14.37" height="7.19"/>
<rect x="337.3" y="290.67" transform="matrix(0.9676 -0.2524 0.2524 0.9676 -63.1201 96.4788)" class="st2" width="14.37" height="7.19"/>
<rect x="379.37" y="171.67" transform="matrix(0.4743 -0.8803 0.8803 0.4743 43.8499 431.1523)" class="st0" width="7.19" height="14.37"/>
<rect x="429.59" y="214.31" transform="matrix(0.2251 -0.9743 0.9743 0.2251 126.1321 594.4012)" class="st2" width="14.37" height="7.19"/>
<rect x="443.02" y="223.89" transform="matrix(0.8481 -0.5298 0.5298 0.8481 -52.1474 273.0605)" class="st2" width="14.37" height="7.19"/>
<rect x="448.52" y="240.08" transform="matrix(0.2253 -0.9743 0.9743 0.2253 109.328 632.0266)" class="st2" width="7.19" height="14.37"/>
<rect x="443.66" y="261.08" transform="matrix(0.2253 -0.9743 0.9743 0.2253 85.0982 643.5608)" class="st2" width="7.19" height="14.37"/>
<rect x="438.8" y="282.09" transform="matrix(0.2253 -0.9743 0.9743 0.2253 60.873 655.1025)" class="st2" width="7.19" height="14.37"/>
<g>
	<path class="st3" d="M478.31,310.65c3.13,0,5.63,0.56,7.52,1.68c1.88,1.12,3.18,2.86,3.88,5.22c1.47-2.55,3.43-4.53,5.89-5.94
		c2.46-1.4,5.19-2.11,8.19-2.11c2.94,0,5.46,0.66,7.57,1.96c2.11,1.31,3.67,3.21,4.69,5.7c1.34-2.43,3.24-4.31,5.7-5.65
		c2.46-1.34,5.22-2.01,8.28-2.01c4.47,0,7.87,1.34,10.2,4.02c2.33,2.68,3.5,6.61,3.5,11.78v30.93c0,1.09-0.24,1.87-0.72,2.35
		c-0.48,0.48-1.33,0.72-2.54,0.72h-16.28c-1.21,0-2.06-0.24-2.54-0.72s-0.72-1.26-0.72-2.35v-32.94c0-0.7-0.16-1.28-0.48-1.72
		c-0.32-0.45-0.77-0.67-1.34-0.67c-0.77,0-1.31,0.26-1.63,0.77v34.57c0,1.09-0.24,1.87-0.72,2.35c-0.48,0.48-1.33,0.72-2.54,0.72
		h-16.28c-1.21,0-2.06-0.24-2.54-0.72c-0.48-0.48-0.72-1.26-0.72-2.35v-32.94c0-0.7-0.16-1.28-0.48-1.72
		c-0.32-0.45-0.77-0.67-1.34-0.67c-0.77,0-1.31,0.26-1.63,0.77v34.57c0,1.09-0.24,1.87-0.72,2.35c-0.48,0.48-1.33,0.72-2.54,0.72
		h-16.28c-1.21,0-2.06-0.24-2.54-0.72s-0.72-1.26-0.72-2.35v-33.81c0-2.23-0.32-3.94-0.96-5.12c-0.64-1.18-1.82-2.28-3.54-3.3
		c-0.45-0.25-0.72-0.46-0.81-0.62c-0.1-0.16-0.14-0.37-0.14-0.62v-1.15c0-0.64,0.38-0.96,1.15-0.96H478.31z"/>
	<path class="st3" d="M590.46,360.45c-6.45,0-11.05-2.65-13.79-7.95c-1.47,2.75-3.27,4.76-5.41,6.03c-2.14,1.28-4.77,1.92-7.9,1.92
		c-4.41,0-7.95-1.09-10.63-3.26c-2.68-2.17-4.02-5.04-4.02-8.62c0-3.13,1.1-5.6,3.3-7.42c2.2-1.82,5.6-3.05,10.2-3.69
		c11.75-1.53,17.62-5.97,17.62-13.31c0-2.94-1.02-5.47-3.06-7.61c-2.04-2.14-4.47-3.21-7.28-3.21c-1.34,0-2.01,0.45-2.01,1.34
		c0,0.32,0.1,0.64,0.29,0.96c2.68,0,4.88,0.8,6.61,2.39c1.72,1.6,2.59,3.64,2.59,6.13c0,2.94-1.23,5.36-3.69,7.28
		c-2.46,1.92-5.6,2.87-9.43,2.87c-3.89,0-6.99-0.97-9.29-2.92c-2.3-1.95-3.45-4.52-3.45-7.71c0-4.28,2.07-7.71,6.22-10.3
		s9.64-3.88,16.47-3.88c8.17,0,14.38,1.98,18.63,5.94c4.24,3.96,6.37,9.77,6.37,17.43v11.97c0,1.09,0.1,1.82,0.29,2.2
		c0.19,0.38,0.51,0.57,0.96,0.57c0.57,0,0.99-0.25,1.24-0.77c0.25-0.51,0.48-1.5,0.67-2.97c0.13-1.09,0.25-1.74,0.38-1.96
		c0.13-0.22,0.38-0.34,0.77-0.34h1.63c0.38,0,0.65,0.22,0.81,0.67c0.16,0.45,0.24,1.18,0.24,2.2c0,5.11-1.33,9.05-3.97,11.83
		C599.16,359.06,595.37,360.45,590.46,360.45z M575.04,339.76c-0.38-0.51-0.89-0.77-1.53-0.77c-1.09,0-1.63,0.64-1.63,1.92v6.13
		c0,1.28,0.54,1.92,1.63,1.92c0.64,0,1.15-0.25,1.53-0.77V339.76z"/>
	<path class="st3" d="M612.58,310.65c5.49,0,9.22,1.63,11.2,4.88c1.85-2.04,3.93-3.56,6.22-4.55c2.3-0.99,4.95-1.48,7.95-1.48
		c4.66,0,8.49,1.28,11.49,3.83c3,2.55,4.5,5.81,4.5,9.77c0,3.32-1.21,6.02-3.64,8.09c-2.43,2.08-5.55,3.11-9.38,3.11
		c-3.77,0-6.85-0.96-9.24-2.87c-2.39-1.92-3.59-4.34-3.59-7.28c0-2.49,0.86-4.53,2.59-6.13c1.72-1.6,3.93-2.39,6.61-2.39
		c0.19-0.32,0.29-0.64,0.29-0.96c0-0.89-0.67-1.34-2.01-1.34c-2.81,0-5.24,1.07-7.28,3.21c-2.04,2.14-3.06,4.71-3.06,7.71
		c0,2.55,0.72,4.8,2.15,6.75c1.44,1.95,3.5,3.5,6.18,4.65c0.89,0.38,1.48,0.81,1.77,1.29c0.29,0.48,0.43,1.29,0.43,2.44v16.85
		c0,2.04-1.09,3.06-3.26,3.06h-19.44c-1.98,0-2.97-1.02-2.97-3.06v-33.81c0-2.23-0.32-3.94-0.96-5.12c-0.64-1.18-1.82-2.28-3.54-3.3
		c-0.45-0.25-0.72-0.46-0.81-0.62c-0.1-0.16-0.14-0.37-0.14-0.62v-1.15c0-0.64,0.38-0.96,1.15-0.96H612.58z"/>
	<path class="st3" d="M678.66,310.65c1.21,0,2.06,0.24,2.54,0.72s0.72,1.26,0.72,2.35v31.12c0,1.09,0.1,1.82,0.29,2.2
		c0.19,0.38,0.51,0.57,0.96,0.57c0.57,0,0.97-0.22,1.2-0.67c0.22-0.45,0.46-1.47,0.72-3.06c0.13-1.09,0.25-1.74,0.38-1.96
		c0.13-0.22,0.38-0.34,0.77-0.34h1.63c0.38,0,0.65,0.22,0.81,0.67c0.16,0.45,0.24,1.21,0.24,2.3c0,5.11-1.37,9.03-4.12,11.78
		c-2.75,2.75-6.67,4.12-11.78,4.12c-4.92,0-8.7-1.39-11.35-4.17c-2.65-2.78-3.97-6.75-3.97-11.92v-21.93c0-2.23-0.32-3.94-0.96-5.12
		c-0.64-1.18-1.82-2.28-3.54-3.3c-0.45-0.25-0.72-0.46-0.81-0.62c-0.1-0.16-0.14-0.37-0.14-0.62v-1.15c0-0.64,0.38-0.96,1.15-0.96
		H678.66z M656.63,297.24c0-2.87,1.12-5.17,3.35-6.9c2.23-1.72,5.23-2.59,9-2.59c3.77,0,6.78,0.86,9.05,2.59
		c2.27,1.72,3.4,4.02,3.4,6.9c0,2.81-1.13,5.08-3.4,6.8c-2.27,1.72-5.28,2.59-9.05,2.59c-3.77,0-6.77-0.85-9-2.54
		C657.75,302.4,656.63,300.12,656.63,297.24z"/>
	<path class="st3" d="M713.13,337.18c0,1.47,1.24,2.82,3.73,4.07s5.27,1.87,8.33,1.87c6.07,0,11.05-2.04,14.94-6.13
		c0.38-0.38,0.65-0.62,0.81-0.72c0.16-0.1,0.4-0.14,0.72-0.14h1.15c0.45,0,0.75,0.16,0.91,0.48c0.16,0.32,0.24,0.89,0.24,1.72
		c0,3.96-1.07,7.61-3.21,10.97c-2.14,3.35-5.17,6.05-9.1,8.09c-3.93,2.04-8.32,3.06-13.17,3.06c-5.17,0-9.83-1.05-13.98-3.16
		c-4.15-2.11-7.45-5.11-9.91-9c-2.46-3.89-3.69-8.33-3.69-13.31c0-4.92,1.15-9.29,3.45-13.12c2.3-3.83,5.57-6.85,9.82-9.05
		c4.24-2.2,9.21-3.3,14.89-3.3c4.28,0,8.12,0.67,11.54,2.01c3.41,1.34,6.11,3.26,8.09,5.75c1.98,2.49,2.97,5.36,2.97,8.62
		c0,4.15-1.5,7.58-4.5,10.3c-3,2.71-6.8,4.07-11.4,4.07c-4.6,0-8.33-1.53-11.2-4.6c-0.38,0-0.72,0.14-1.01,0.43
		C713.28,336.36,713.13,336.73,713.13,337.18z M716.01,330.57c0.38,0.51,0.89,0.77,1.53,0.77c1.15,0,1.72-0.64,1.72-1.92v-13.6
		c0-1.28-0.57-1.92-1.72-1.92c-0.64,0-1.15,0.26-1.53,0.77V330.57z"/>
</g>
<g>
	<path class="st3" d="M63.35,310.65c3.13,0,5.63,0.56,7.52,1.68c1.88,1.12,3.18,2.86,3.88,5.22c1.47-2.55,3.43-4.53,5.89-5.94
		c2.46-1.4,5.19-2.11,8.19-2.11c2.94,0,5.46,0.66,7.57,1.96c2.11,1.31,3.67,3.21,4.69,5.7c1.34-2.43,3.24-4.31,5.7-5.65
		c2.46-1.34,5.22-2.01,8.28-2.01c4.47,0,7.87,1.34,10.2,4.02c2.33,2.68,3.5,6.61,3.5,11.78v30.93c0,1.09-0.24,1.87-0.72,2.35
		c-0.48,0.48-1.33,0.72-2.54,0.72h-16.28c-1.21,0-2.06-0.24-2.54-0.72s-0.72-1.26-0.72-2.35v-32.94c0-0.7-0.16-1.28-0.48-1.72
		c-0.32-0.45-0.77-0.67-1.34-0.67c-0.77,0-1.31,0.26-1.63,0.77v34.57c0,1.09-0.24,1.87-0.72,2.35s-1.33,0.72-2.54,0.72H82.98
		c-1.21,0-2.06-0.24-2.54-0.72s-0.72-1.26-0.72-2.35v-32.94c0-0.7-0.16-1.28-0.48-1.72c-0.32-0.45-0.77-0.67-1.34-0.67
		c-0.77,0-1.31,0.26-1.63,0.77v34.57c0,1.09-0.24,1.87-0.72,2.35c-0.48,0.48-1.33,0.72-2.54,0.72H56.74c-1.21,0-2.06-0.24-2.54-0.72
		s-0.72-1.26-0.72-2.35v-33.81c0-2.23-0.32-3.94-0.96-5.12c-0.64-1.18-1.82-2.28-3.54-3.3c-0.45-0.25-0.72-0.46-0.81-0.62
		c-0.1-0.16-0.14-0.37-0.14-0.62v-1.15c0-0.64,0.38-0.96,1.15-0.96H63.35z"/>
	<path class="st3" d="M175.5,360.45c-6.45,0-11.05-2.65-13.79-7.95c-1.47,2.75-3.27,4.76-5.41,6.03c-2.14,1.28-4.77,1.92-7.9,1.92
		c-4.41,0-7.95-1.09-10.63-3.26c-2.68-2.17-4.02-5.04-4.02-8.62c0-3.13,1.1-5.6,3.3-7.42c2.2-1.82,5.6-3.05,10.2-3.69
		c11.75-1.53,17.62-5.97,17.62-13.31c0-2.94-1.02-5.47-3.06-7.61c-2.04-2.14-4.47-3.21-7.28-3.21c-1.34,0-2.01,0.45-2.01,1.34
		c0,0.32,0.1,0.64,0.29,0.96c2.68,0,4.88,0.8,6.61,2.39c1.72,1.6,2.59,3.64,2.59,6.13c0,2.94-1.23,5.36-3.69,7.28
		c-2.46,1.92-5.6,2.87-9.43,2.87c-3.89,0-6.99-0.97-9.29-2.92c-2.3-1.95-3.45-4.52-3.45-7.71c0-4.28,2.07-7.71,6.22-10.3
		c4.15-2.59,9.64-3.88,16.47-3.88c8.17,0,14.38,1.98,18.63,5.94c4.24,3.96,6.37,9.77,6.37,17.43v11.97c0,1.09,0.1,1.82,0.29,2.2
		c0.19,0.38,0.51,0.57,0.96,0.57c0.57,0,0.99-0.25,1.24-0.77c0.25-0.51,0.48-1.5,0.67-2.97c0.13-1.09,0.25-1.74,0.38-1.96
		c0.13-0.22,0.38-0.34,0.77-0.34h1.63c0.38,0,0.65,0.22,0.81,0.67c0.16,0.45,0.24,1.18,0.24,2.2c0,5.11-1.33,9.05-3.97,11.83
		C184.19,359.06,180.41,360.45,175.5,360.45z M160.08,339.76c-0.38-0.51-0.89-0.77-1.53-0.77c-1.09,0-1.63,0.64-1.63,1.92v6.13
		c0,1.28,0.54,1.92,1.63,1.92c0.64,0,1.15-0.25,1.53-0.77V339.76z"/>
	<path class="st3" d="M197.62,310.65c5.49,0,9.22,1.63,11.2,4.88c1.85-2.04,3.93-3.56,6.22-4.55c2.3-0.99,4.95-1.48,7.95-1.48
		c4.66,0,8.49,1.28,11.49,3.83c3,2.55,4.5,5.81,4.5,9.77c0,3.32-1.21,6.02-3.64,8.09c-2.43,2.08-5.55,3.11-9.38,3.11
		c-3.77,0-6.85-0.96-9.24-2.87c-2.39-1.92-3.59-4.34-3.59-7.28c0-2.49,0.86-4.53,2.59-6.13c1.72-1.6,3.93-2.39,6.61-2.39
		c0.19-0.32,0.29-0.64,0.29-0.96c0-0.89-0.67-1.34-2.01-1.34c-2.81,0-5.24,1.07-7.28,3.21c-2.04,2.14-3.06,4.71-3.06,7.71
		c0,2.55,0.72,4.8,2.15,6.75c1.44,1.95,3.5,3.5,6.18,4.65c0.89,0.38,1.48,0.81,1.77,1.29c0.29,0.48,0.43,1.29,0.43,2.44v16.85
		c0,2.04-1.09,3.06-3.26,3.06H198.1c-1.98,0-2.97-1.02-2.97-3.06v-33.81c0-2.23-0.32-3.94-0.96-5.12c-0.64-1.18-1.82-2.28-3.54-3.3
		c-0.45-0.25-0.72-0.46-0.81-0.62c-0.1-0.16-0.14-0.37-0.14-0.62v-1.15c0-0.64,0.38-0.96,1.15-0.96H197.62z"/>
	<path class="st3" d="M263.7,310.65c1.21,0,2.06,0.24,2.54,0.72s0.72,1.26,0.72,2.35v31.12c0,1.09,0.1,1.82,0.29,2.2
		c0.19,0.38,0.51,0.57,0.96,0.57c0.57,0,0.97-0.22,1.2-0.67c0.22-0.45,0.46-1.47,0.72-3.06c0.13-1.09,0.25-1.74,0.38-1.96
		c0.13-0.22,0.38-0.34,0.77-0.34h1.63c0.38,0,0.65,0.22,0.81,0.67c0.16,0.45,0.24,1.21,0.24,2.3c0,5.11-1.37,9.03-4.12,11.78
		c-2.75,2.75-6.67,4.12-11.78,4.12c-4.92,0-8.7-1.39-11.35-4.17c-2.65-2.78-3.97-6.75-3.97-11.92v-21.93c0-2.23-0.32-3.94-0.96-5.12
		c-0.64-1.18-1.82-2.28-3.54-3.3c-0.45-0.25-0.72-0.46-0.81-0.62c-0.1-0.16-0.14-0.37-0.14-0.62v-1.15c0-0.64,0.38-0.96,1.15-0.96
		H263.7z M241.67,297.24c0-2.87,1.12-5.17,3.35-6.9c2.23-1.72,5.23-2.59,9-2.59c3.77,0,6.78,0.86,9.05,2.59
		c2.27,1.72,3.4,4.02,3.4,6.9c0,2.81-1.13,5.08-3.4,6.8c-2.27,1.72-5.28,2.59-9.05,2.59c-3.77,0-6.77-0.85-9-2.54
		C242.79,302.4,241.67,300.12,241.67,297.24z"/>
	<path class="st3" d="M317.13,360.45c-6.45,0-11.05-2.65-13.79-7.95c-1.47,2.75-3.27,4.76-5.41,6.03c-2.14,1.28-4.77,1.92-7.9,1.92
		c-4.4,0-7.95-1.09-10.63-3.26c-2.68-2.17-4.02-5.04-4.02-8.62c0-3.13,1.1-5.6,3.3-7.42c2.2-1.82,5.6-3.05,10.2-3.69
		c11.75-1.53,17.62-5.97,17.62-13.31c0-2.94-1.02-5.47-3.06-7.61c-2.04-2.14-4.47-3.21-7.28-3.21c-1.34,0-2.01,0.45-2.01,1.34
		c0,0.32,0.1,0.64,0.29,0.96c2.68,0,4.88,0.8,6.61,2.39c1.72,1.6,2.59,3.64,2.59,6.13c0,2.94-1.23,5.36-3.69,7.28
		c-2.46,1.92-5.6,2.87-9.43,2.87c-3.89,0-6.99-0.97-9.29-2.92c-2.3-1.95-3.45-4.52-3.45-7.71c0-4.28,2.07-7.71,6.22-10.3
		s9.64-3.88,16.47-3.88c8.17,0,14.38,1.98,18.63,5.94c4.24,3.96,6.37,9.77,6.37,17.43v11.97c0,1.09,0.1,1.82,0.29,2.2
		c0.19,0.38,0.51,0.57,0.96,0.57c0.57,0,0.99-0.25,1.24-0.77c0.25-0.51,0.48-1.5,0.67-2.97c0.13-1.09,0.25-1.74,0.38-1.96
		c0.13-0.22,0.38-0.34,0.77-0.34h1.63c0.38,0,0.65,0.22,0.81,0.67c0.16,0.45,0.24,1.18,0.24,2.2c0,5.11-1.33,9.05-3.97,11.83
		C325.83,359.06,322.05,360.45,317.13,360.45z M301.72,339.76c-0.38-0.51-0.89-0.77-1.53-0.77c-1.09,0-1.63,0.64-1.63,1.92v6.13
		c0,1.28,0.54,1.92,1.63,1.92c0.64,0,1.15-0.25,1.53-0.77V339.76z"/>
</g>
<path class="st4" d="M465.86,378.9c0,0,3.71-2.89,40.39,1.23s61.43,3.09,84.68,0c23.25-3.09,47.85-4.26,76.05,0.44
	c28.21,4.71,63.46-0.2,71.71-3.15"/>
<path class="st4" d="M48.03,381.21c0,0,9.9-4.65,46.61,0s61.48,3.49,84.74,0s47.88-4.82,76.11,0.5s63.5-0.22,71.76-3.56"/>
<g>
	<path class="st3" d="M350.86,387.83h7.79v0.62c0,1.42-0.17,2.67-0.5,3.76c-0.33,1.01-0.88,1.95-1.65,2.83
		c-1.75,1.97-3.98,2.95-6.68,2.95c-2.64,0-4.9-0.95-6.77-2.86c-1.88-1.91-2.82-4.21-2.82-6.88c0-2.73,0.96-5.05,2.87-6.96
		c1.91-1.91,4.24-2.87,6.98-2.87c1.47,0,2.85,0.3,4.13,0.9c1.22,0.6,2.42,1.58,3.6,2.93l-2.03,1.94c-1.55-2.06-3.43-3.09-5.65-3.09
		c-1.99,0-3.67,0.69-5.02,2.06c-1.35,1.35-2.03,3.04-2.03,5.08c0,2.1,0.75,3.83,2.26,5.19c1.41,1.26,2.93,1.89,4.58,1.89
		c1.4,0,2.66-0.47,3.77-1.42c1.11-0.95,1.74-2.09,1.87-3.42h-4.7V387.83z"/>
	<path class="st3" d="M374.32,393.06h-8.07l-2.1,4.58h-3.06l9.33-20.03l9,20.03h-3.11L374.32,393.06z M373.16,390.39l-2.8-6.41
		l-2.93,6.41H373.16z"/>
	<path class="st3" d="M390.02,389.61l5.83,8.03h-3.48l-5.38-7.71h-0.51v7.71h-2.84v-18.85h3.33c2.49,0,4.29,0.47,5.4,1.4
		c1.22,1.04,1.83,2.42,1.83,4.13c0,1.33-0.38,2.48-1.15,3.44C392.29,388.73,391.28,389.34,390.02,389.61z M386.48,387.45h0.9
		c2.69,0,4.04-1.03,4.04-3.09c0-1.93-1.31-2.89-3.93-2.89h-1.01V387.45z"/>
	<path class="st3" d="M400.57,397.64v-18.85h3.96c1.9,0,3.39,0.19,4.49,0.56c1.18,0.37,2.25,0.99,3.21,1.87
		c1.94,1.77,2.92,4.11,2.92,7c0,2.9-1.01,5.24-3.04,7.03c-1.02,0.9-2.08,1.52-3.2,1.87c-1.04,0.35-2.52,0.53-4.43,0.53H400.57z
		 M403.41,394.97h1.28c1.28,0,2.34-0.13,3.19-0.4c0.85-0.29,1.61-0.74,2.29-1.36c1.4-1.28,2.1-2.94,2.1-4.99
		c0-2.07-0.69-3.74-2.08-5.03c-1.25-1.15-3.08-1.72-5.51-1.72h-1.28V394.97z"/>
	<path class="st3" d="M430.99,381.47h-7.56V386h7.34v2.67h-7.34v6.3h7.56v2.67h-10.4v-18.85h10.4V381.47z"/>
	<path class="st3" d="M436.6,397.64v-20.13l13.75,14.38v-13.1h2.84v20l-13.75-14.34v13.2H436.6z"/>
</g>
<g>
	<path class="st0" d="M426.16,168.23c-3.46-1.55-7.52-0.73-10.11,2.04c0.04,0.04,0.08,0.08,0.13,0.12c0.65,0.53,1.27,1.1,1.86,1.7
		c0.3,0.3,0.59,0.62,0.87,0.94c2.86,3.34,4.75,7.39,5.47,11.72l0.03,0.14c4.76-1.05,7.77-5.76,6.72-10.52
		C430.53,171.65,428.69,169.37,426.16,168.23z"/>
	<path class="st0" d="M434.44,161.89l-4.19,1.58l1.16-2.55l-3.22-1.46l-1.16,2.55l-1.58-4.19l-3.3,1.24l3.08,8.18l0.02-0.01
		c0.32,0.9,1.32,1.37,2.22,1.05c0.01,0,0.02-0.01,0.04-0.01l8.18-3.08L434.44,161.89z"/>
</g>
</svg>
