<?xml version="1.0" encoding="UTF-8"?>
<svg width="686px" height="991px" viewBox="0 0 686 991" version="1.1" xmlns="http://www.w3.org/2000/svg" xmlns:xlink="http://www.w3.org/1999/xlink">
    <title>composition-1</title>
    <g id="Page-1" stroke="none" stroke-width="1" fill="none" fill-rule="evenodd">
        <g id="Desktop-HD-Copy" transform="translate(-377.000000, -16.000000)" fill-rule="nonzero">
            <g id="composition-1" transform="translate(377.000000, 16.000000)">
                <path d="M590.9,724.9 C546.1,794.4 485.2,855 420.8,906.3 C360.5,954.2 283.3,1000.4 203.1,989.3 C134.3,979.7 87.4,926.4 48.6,872.2 C14.6,807.9 -2,735.3 0.3,662.6 C2.6,586.4 27.7,512.1 69.6,448.7 C111.2,385.7 173,328.4 245.4,303.8 C327.2,276 411,312.9 484.6,347.9 C550.3,379.1 614.6,423.1 637.4,495.8 C662.1,574.7 634,658.1 590.9,724.9 Z" id="Path" fill="#D7DDDA"></path>
                <g id="Group" transform="translate(84.000000, 97.000000)" fill="#567570">
                    <path d="M120,873.8 C130.6,825.8 139.9,777.4 143.9,728.4 C145.9,704.5 146,681 144.5,657.6 C143,634.2 139.8,611 135.3,587.6 C130.9,564.3 126.6,540.9 127.8,517.2 C129.1,491.1 140,467 146.2,441.9 C157.3,395.5 154,347.1 160.8,300.2 C162.4,289 164.8,277.9 168.1,267.1 C171.4,256.3 175.5,245.8 180.8,235.6 C191.7,214.8 206.7,196.3 222.2,178.7 C236.6,162.4 250.9,146 265.6,129.9 C281.2,112.8 297.9,99.5 319.7,91.2 C338.1,84.1 357.8,80 376.8,74.5 C399.7,67.9 422.4,60.6 445.1,53 C463.5,46.8 482.4,41.4 497.8,29 C505.7,22.7 512.6,15.1 520.4,8.7 C527.3,3 526.6,7.8 527.7,14 C528.7,19.7 529.6,25.3 530.9,30.9 C531.2,32.2 533.1,31.7 532.9,30.4 C531.3,21.5 531.5,10.4 527.4,2.3 C527.1,1.7 526.2,1.4 525.6,1.8 C517,7.5 509.7,14.7 502.2,21.7 C491.7,31.5 480.4,37.7 467.2,42.7 C443.1,51.6 418.5,59.2 394.1,66.7 C371.7,73.5 348.7,78.9 326.4,86.1 C306.3,92.6 289.2,102.6 274.1,117.3 C256.3,134.4 240.9,154.1 224.3,172.3 C208.2,189.9 193.1,208.3 181,228.8 C169,249 162.6,271.2 158.7,294 C154.9,316.8 153.7,340.3 152.4,363.4 C151.3,384.7 149.7,406 146.2,427.1 C142.4,450 133.4,471.4 128.2,493.9 C118.9,533.4 130.3,573.6 137.2,612.7 C152.5,699.9 134.8,787.5 118.5,873.6 C118.2,874.7 119.8,874.8 120,873.8 Z" id="Path"></path>
                    <path d="M144.9,443.3 C155.8,425.2 169.7,410.3 185.2,396.9 C200.6,383.5 217.7,371.7 234.9,360 C251.2,348.9 267.3,337.6 282.3,324.7 C298.7,310.7 312.1,294.3 324.3,276.5 C338.4,256.1 351.1,234.7 368.5,216.7 C382.8,202 399.8,190.3 417,179.3 C448.6,159.1 483.6,140.8 507.3,110.3 C519.1,95.1 527.4,77 531.1,58.2 C534.8,39.3 534.1,19.6 527.9,1.2 C527.4,-0.4 525,0.2 525.4,1.9 C531.5,25.9 531.7,49.8 523.9,73.7 C517,94.7 503.4,112.4 487.4,127.1 C472.7,140.6 456.2,151.6 439.4,162.2 C422.6,172.7 405.5,182.9 389.7,194.7 C372.9,207.3 358.7,222.2 346.4,239.1 C331.7,259.3 319.2,281.2 303.2,300.3 C276.6,331.7 240.2,352.5 207.3,376.1 C182.4,394 157.6,414.7 143.4,442.4 C143,443.3 144.4,444.3 144.9,443.3 Z" id="Path"></path>
                    <path d="M149.1,436 C179.4,398.2 197.4,354.2 213.1,308.8 C229.8,260.9 271.6,223.5 310.2,192.2 C377.4,137.7 457.2,95.1 511.8,25 C517.2,18.1 522.3,11 527.1,3.6 C528,2.2 525.9,1 525,2.3 C474.8,78.1 394.8,123.7 324.9,177 C287.8,205.3 250.6,237.6 225.3,276.9 C211.6,298.1 206.6,323.2 197.3,346.3 C188,369.1 176.8,391.3 163.6,412.1 C158.7,419.9 153.4,427.6 147.9,435 C147.3,435.9 148.5,436.7 149.1,436 Z" id="Path"></path>
                    <path d="M138,606.7 C136.8,589.7 130.5,573.4 124.2,557.8 C116.7,539.1 108.1,520.8 101.2,501.9 C94.2,482.8 90.9,463.8 92.1,443.5 C93.3,422.1 98.2,401 101.8,380 C105.1,360.7 106.7,341.1 103.8,321.6 C100.8,301 91.1,281.9 85.1,262.2 C79.1,242.5 78.6,222.9 86,203.6 C93.5,184.3 108.9,168.5 127.6,159.5 C129.1,158.8 127.9,156.6 126.4,157.2 C93.5,172.1 74.2,207.3 78,242.8 C80.2,264.2 90.5,284.1 96.9,304.5 C103.8,326.6 103.4,349.2 100.3,371.9 C97.4,392.5 93,412.7 90.9,432.9 C88.8,453.1 89.1,473.3 95.8,493.9 C108,532 130.1,566.8 137.1,606.8 C137.1,607.5 138.1,607.3 138,606.7 Z" id="Path"></path>
                    <path d="M101.7,506.5 C93.3,490.2 84.5,473.8 72.6,459.6 C62.3,447.4 48.5,440.6 35.4,432 C21.6,422.9 8.1,411.4 4.4,394.8 C2.1,384.5 5.6,373.8 7.8,363.9 C9.9,354.2 10.9,344.3 11.4,334.4 C12.6,313.9 12,293.5 14.9,273.2 C17.9,252.2 25.3,231.8 36.4,213.7 C47.1,196.3 62.2,183.1 79.6,173.9 C97,164.7 116.8,159.5 137,158.2 C138.4,158.1 138.4,156.2 137,156.1 C119.1,154.3 100.6,160.5 84.6,167.8 C68,175.5 53.3,186.6 41.9,200.6 C14.3,234.6 10,277.4 8.9,319.5 C8.6,330.3 8.1,341 6.8,351.7 C5.4,363 1.6,373.9 0.7,385.2 C-0.5,400.4 8.3,413.5 19.2,423.4 C31.7,434.7 47.4,441.2 60.5,451.7 C78.4,466 88.9,487.9 100.4,507 C100.9,507.9 102.1,507.3 101.7,506.5 Z" id="Path"></path>
                    <path d="M83.1,258.2 C82.4,246.7 93.8,235.2 100.5,226.6 C107.9,217.1 115.9,208.1 124.4,199.4 C141.3,182 160.2,166.5 180.5,153.1 C181.6,152.4 181,150.9 179.7,151 C159.9,153.4 139.8,155.1 120.1,158.3 C119,158.5 119.2,160.4 120.3,160.3 C140.3,158.8 160.3,155.7 180.2,153.2 L179.4,151.1 C157.3,165.7 137.1,182.7 119,201.9 C110.6,210.8 102.8,220.3 95.4,230 C89.4,238 80.4,247.6 82.2,258.3 C82.3,258.8 83.2,258.7 83.1,258.2 Z" id="Path"></path>
                    <path d="M95.9,491.3 C81.2,460.3 69.7,428.2 62,394.9 C58.4,379.1 55.8,363.2 54.4,347.2 C53.4,335.6 54,324.1 53.5,312.6 C51.4,269.8 39.2,218.8 66.5,181.4 C67.4,180.2 65.5,179.1 64.6,180.2 C49.3,198.5 47.1,224.8 46.6,247.7 C46.2,269.4 49.6,290.8 50.8,312.5 C51.5,324 50.8,335.6 51.8,347.1 C53,362.5 55.5,377.8 58.9,392.9 C66.5,427.1 79.1,460.3 94.9,491.8 C95.2,492.4 96.2,491.9 95.9,491.3 Z" id="Path"></path>
                    <path d="M94,187.2 C104.7,181 114.4,174.1 126,169.5 C142.7,162.9 160.6,160.8 177.6,155.3 C178.7,154.9 178.3,153.4 177.2,153.5 C160.3,155.6 142.3,160.7 126.5,166.7 C114.6,171.3 102.7,177.5 93,185.8 C92.4,186.4 93.2,187.7 94,187.2 Z" id="Path"></path>
                </g>
                <g id="Group" transform="translate(174.000000, 0.000000)" fill="#CE7E5C">
                    <path d="M216.5,1.9 C224.4,18 233.1,33.9 242.1,49.9 C246.5,57.9 251.3,65.9 255.6,74 C260,82.1 264.3,90.2 268.6,98.4 C277.1,115 285.9,132.1 292.4,149.8 C295.8,158.9 296.9,168.1 294.7,177.7 C292.4,187.7 286.5,196.6 280.6,204.9 C236.9,267.6 191.2,328.6 156.8,398.2 C145.1,421.8 133.5,447.9 127.6,474.5 C121.6,501.3 121.2,528.6 131.7,555.2 C137.2,569 145.1,581.7 151.7,594.9 C158.1,607.7 162.6,621.5 165.7,635.5 C168.8,649.3 170.3,663.3 171,677.3 C171.7,691.3 171.9,705.5 171.9,719.5 C171.9,720.8 174,721 174,719.6 C173.7,687.5 173.5,655.1 164.9,623.8 C155.8,590.7 132.3,563.7 126.6,529.5 C123.8,512.7 125,495.6 128.5,478.9 C132,462.2 137.7,446 144,430.7 C151.5,412.6 159.9,395.2 169.1,378.1 C178.4,361 188.1,344.3 198.3,328 C202.7,320.9 207.2,313.9 211.8,306.9 C216.3,299.9 220.9,293 225.5,286.2 C234.7,272.4 244.5,258.8 254,245.3 C263.3,232.1 272.8,219 282.2,205.9 C290.8,193.8 298.4,180.4 297.8,165.1 C297.3,152.1 290.3,139.1 284.9,127.4 C278.1,112.5 270.6,98 263,83.7 C255.7,69.7 247.7,55.9 240,42.2 C232.3,28.5 224.8,14.8 217.6,1.1 C217.2,0.6 216.1,1.2 216.5,1.9 Z" id="Path"></path>
                    <path d="M216.7,1.6 C214.7,19.6 214.6,37.9 216.3,56.2 C217.7,74.6 220.7,93.1 225.4,111.5 C227.8,120.7 230.5,129.8 233.6,138.9 C236.7,148 240.2,156.9 244.1,165.8 C248.3,175.3 253.3,184.5 257.8,193.9 C262.3,203.3 266.4,212.8 269,223 C269.2,223.9 270.5,223.6 270.4,222.7 C269,213.4 265.4,204.5 261.2,195.9 C256.9,187.3 252,178.9 248.1,170.5 C239.6,152.5 233.3,133.8 228.1,115 C222.9,96.1 219.6,77 218,58 C216,39.1 215.8,20.2 217.4,1.6 C217.5,1.2 216.7,1.2 216.7,1.6 Z" id="Path"></path>
                    <path d="M293.1,150 C309.1,219.2 305.9,291.6 289.3,361.7 C285.2,378.8 280.7,395.9 281.7,413.7 C282.8,432.8 286.8,451.5 286.3,470.7 C285.4,507.8 273.3,543.8 261.1,578.4 C254.7,596.6 248.4,615 240.1,632.4 C231.2,651 219.1,666.7 205,681.7 C192.9,694.5 181.1,707.2 170.3,721.2 C164.9,728.2 159.7,735.4 154.6,742.6 C149.6,749.9 144.7,757.3 139.8,764.7 C119.8,794.5 100.3,824.9 73.9,850.1 C49,874.6 16,892.9 3.6,928.8 C0.3,938 -0.6,947.6 0.5,957.1 C0.7,958.4 2.8,958 2.7,956.8 C0.8,935.9 8.8,918.3 20.6,903.2 C32.6,888.1 48.7,875.6 62.6,863.7 C76,852.2 88.1,839.5 99.2,826.1 C110.3,812.6 120.1,798.3 130,783.9 C140.2,768.9 150,753.6 160.5,738.9 C171,724.2 182,709.9 194.3,696.6 C206.6,683.4 219.3,670.7 229.5,655.9 C240.1,640.4 247.5,622.8 254,605.2 C266.6,571.4 279.2,536.9 285.4,501.1 C288.4,483.9 289.4,466.4 287.8,448.9 C286.1,429.4 282.2,410.8 285,391.2 C287.5,373.2 292.9,355.5 296.4,337.6 C299.6,320.3 301.9,302.8 303.6,285.3 C305.3,268.1 305.6,250.7 305.2,233.4 C305,224.8 304.5,216.1 303.8,207.6 C303,199 301.9,190.5 300.5,182 C298.8,171.2 296.5,160.5 293.5,150.1 C293.5,149.5 293,149.6 293.1,150 Z" id="Path"></path>
                    <path d="M216.6,1.7 C221.3,18.3 226.1,35.1 231.2,52 L235,64.7 L238.6,77.5 C241,86 243.6,94.6 246.2,103.1 C248.9,112 251.7,120.9 254.5,129.8 C257.2,138.7 260,147.7 262.9,156.6 C268.1,172.9 273,190.5 280.4,206.1 C280.7,206.7 281.8,206.4 281.6,205.7 C277,188.9 269.9,172.7 264.6,156.2 C261.7,147.3 258.9,138.3 256.2,129.4 C253.3,120.5 250.6,111.6 247.9,102.7 C237.7,68.9 227.6,35.2 217.5,1.5 C217.3,1 216.5,1.2 216.6,1.7 Z" id="Path"></path>
                    <path d="M303.4,270.7 C291.1,303 271.8,331.5 251.8,359.5 C234.7,383.7 219.9,408 211.3,436.7 C192.2,499.7 196.3,567.8 190,633 C187.2,662.7 181.2,691 172.2,719.3 C171.9,720.4 173.4,720.9 173.8,719.9 C186.1,691 190.2,658.3 192.9,627.2 C196.1,593.6 196.7,559.6 199.3,525.9 C201.8,492.9 205.9,459.9 216.5,428.5 C226.3,399.3 243.9,375.1 261.3,350.2 C278.9,325.4 294.3,299.7 304.3,270.8 C304.4,270.5 303.6,270.2 303.4,270.7 Z" id="Path"></path>
                    <path d="M278.7,708 C295.1,639.9 317.6,569 374,521.7 C388.4,509.7 403.7,498.9 417.4,486 C430,474.1 441.1,460.8 451.2,446.6 C461.6,432 470.7,416.5 479.1,400.6 C487.4,384.5 495,367.9 502.3,351.4 C505.6,344 508.8,336.4 511.9,328.8 L509.9,328.1 C508.7,332.9 507.7,337.6 506.8,342.4 C505.8,347.1 505,351.9 504.2,356.6 C502.6,366.1 501.3,375.7 500.1,385.3 C497.7,404.6 495.4,423.5 491.6,442.3 C489.8,451.2 487.7,460 485.1,468.7 C482.6,477.3 479.7,485.8 476.5,494.2 C470.1,510.9 462.4,527.3 453.6,542.6 C445,557.7 435.1,572.3 424.2,585.8 C413.4,599.3 401.5,612 388.8,623.8 C376.6,635.1 363.4,645 349.9,654.5 C336.4,664 322.4,673.1 309,682.6 C298.1,690.3 287.4,698.2 277.4,707.1 C276.4,708 277.7,709.6 278.8,708.7 C303.3,687.8 330.6,670.8 357.1,652.3 C384.3,633.3 408.6,609.5 429.1,583.2 C449.7,556.5 466.3,526.8 478.5,494.9 C481.7,486.4 484.5,477.9 487,469.3 C489.4,460.6 491.5,451.8 493.2,443 C496.8,425.3 499.4,407.6 501.5,389.3 C502.7,379.2 504,369 505.6,358.9 C506.4,353.9 507.3,348.8 508.4,343.8 C509.4,338.8 510.5,333.7 511.8,328.7 C512.2,327.3 510.4,326.7 509.8,328 L504.2,341.1 L498.4,354 C494.5,362.6 490.6,371.1 486.6,379.6 C478.5,396.6 469.8,413 459.9,428.9 C455.1,436.6 450,444.1 444.7,451.3 C439.3,458.5 433.6,465.4 427.6,472 C414.6,486.2 399.7,498.2 384.7,509.9 C370.8,520.8 357.6,532.2 346.2,545.6 C335,558.8 325.6,573.4 317.5,588.5 C309.3,603.8 302.5,619.6 296.8,635.9 C291,652.2 286.3,668.8 282.4,685.5 C280.6,692.9 279.2,700.3 277.8,707.8 C277.7,708.3 278.6,708.5 278.7,708 Z" id="Path"></path>
                    <path d="M87.2,839.3 C107.1,824.7 127.4,811.7 149.2,800.7 C165.9,792.3 183.1,784.8 199.6,776.2 C215.5,767.9 230.5,758 244,746.2 C253.3,738.1 262.3,729.1 270.6,719.5 C278.9,709.9 286.4,699.6 292.4,688.8 C292.9,687.9 291.7,687 291,687.9 C283.7,698.2 276.3,708.1 268.4,717.6 C260.5,727.1 252.2,736.1 242.7,744.6 C228.7,757.1 212.6,767.1 196,775.8 C179.4,784.4 162.1,792 145.2,800.7 C124.6,811.3 104.8,823.7 86.3,838.2 C85.6,838.9 86.5,839.9 87.2,839.3 Z" id="Path"></path>
                    <path d="M278.7,708.2 C320.8,649.3 373,597.6 413.7,536.3 C452.8,477.4 483.3,411.3 507.2,342.6 C508.8,338 510.3,333.3 511.7,328.7 C512,327.6 510.5,327.1 510.1,328.1 C485.6,398.2 456.5,465.3 417.8,526.3 C378.3,588.5 326,639.9 284,698.8 L277.8,707.6 C277.4,708.1 278.3,708.8 278.7,708.2 Z" id="Path"></path>
                </g>
            </g>
        </g>
    </g>
</svg>